<svg xmlns="http://www.w3.org/2000/svg" xmlns:xlink="http://www.w3.org/1999/xlink" width="100" height="68" version="1.1" viewBox="0 0 100 68"><title>pages</title><desc>Created with Sketch.</desc><defs><rect id="path-1" width="100" height="68" x="0" y="0"/><linearGradient id="linearGradient-3" x1="0%" x2="106.266%" y1="0%" y2="109.896%"><stop offset="0%" stop-color="#C8EAF4" stop-opacity=".208"/><stop offset="100%" stop-color="#3DD0FF"/></linearGradient><rect id="path-4" width="32" height="34" x="0" y="0"/><mask id="mask-5" width="32" height="34" x="0" y="0" fill="#fff" maskContentUnits="userSpaceOnUse" maskUnits="objectBoundingBox"><use xlink:href="#path-4"/></mask><mask id="mask-7" width="32" height="34" x="0" y="0" fill="#fff" maskContentUnits="userSpaceOnUse" maskUnits="objectBoundingBox"><use xlink:href="#path-4"/></mask><rect id="path-8" width="32" height="34" x="0" y="0"/><mask id="mask-9" width="32" height="34" x="0" y="0" fill="#fff" maskContentUnits="userSpaceOnUse" maskUnits="objectBoundingBox"><use xlink:href="#path-8"/></mask><mask id="mask-11" width="32" height="34" x="0" y="0" fill="#fff" maskContentUnits="userSpaceOnUse" maskUnits="objectBoundingBox"><use xlink:href="#path-8"/></mask><rect id="path-12" width="32" height="34" x="0" y="0"/><mask id="mask-13" width="32" height="34" x="0" y="0" fill="#fff" maskContentUnits="userSpaceOnUse" maskUnits="objectBoundingBox"><use xlink:href="#path-12"/></mask><mask id="mask-15" width="32" height="34" x="0" y="0" fill="#fff" maskContentUnits="userSpaceOnUse" maskUnits="objectBoundingBox"><use xlink:href="#path-12"/></mask></defs><g id="Elements" fill="none" fill-rule="evenodd" stroke="none" stroke-width="1"><g id="pages"><mask id="mask-2" fill="#fff"><use xlink:href="#path-1"/></mask><use id="BG" fill="#FFF" xlink:href="#path-1"/><g id="page" mask="url(#mask-2)"><g transform="translate(11.000000, 11.000000)"><g id="image" transform="translate(1.000000, 0.000000)"><mask id="mask-6" fill="#fff"><use xlink:href="#path-4"/></mask><g id="Mask" fill="url(#linearGradient-3)" fill-opacity=".15" stroke="#00A0D2" stroke-width="2" mask="url(#mask-5)"><use mask="url(#mask-7)" xlink:href="#path-4"/></g><path id="Shape-Copy-6" fill="#00A0D2" d="M18.6065714,22.3571765 C18.6065714,22.3571765 20.9265714,19.8262547 21.4319047,16.4225502 C22.7919047,16.4225502 23.6319047,12.8039841 22.2719047,11.5311142 C22.329238,10.1915631 24.0199047,1.01178536 15.4559047,1.01178536 C6.89190469,1.01178536 8.58257135,10.1915631 8.63990469,11.5311142 C7.27990469,12.8039841 8.11990469,16.4225502 9.47990469,16.4225502 C9.98523802,19.8262547 12.3065714,22.3571765 12.3065714,22.3571765 C12.3065714,22.3571765 12.2879047,24.7502905 11.4985714,24.8880983 C8.95457135,25.3341214 -0.544095312,29.9499418 -0.544095312,35.0117854 L31.4559047,35.0117854 C31.4559047,29.9499418 21.957238,25.3341214 19.4145714,24.8880983 C18.625238,24.7502905 18.6065714,22.3571765 18.6065714,22.3571765 Z" mask="url(#mask-6)" opacity=".142"/></g><g id="headline" opacity=".6" transform="translate(0.000000, 37.000000)"><rect id="Rectangle-167-Copy-16" width="27.792" height="2.455" x="1.208" y="0" fill="#00A0D2"/><rect id="Rectangle-167-Copy-8" width="16.857" height="2.294" x=".965" y="5.456" fill="#00A0D2" fill-opacity=".532" opacity=".333"/></g></g></g><g id="page" mask="url(#mask-2)"><g transform="translate(49.000000, 11.000000)"><g id="image" transform="translate(1.000000, 0.000000)"><mask id="mask-10" fill="#fff"><use xlink:href="#path-8"/></mask><g id="Mask" fill="url(#linearGradient-3)" fill-opacity=".15" stroke="#00A0D2" stroke-width="2" mask="url(#mask-9)"><use mask="url(#mask-11)" xlink:href="#path-8"/></g><path id="Shape-Copy-6" fill="#00A0D2" d="M18.6065714,22.3571765 C18.6065714,22.3571765 20.9265714,19.8262547 21.4319047,16.4225502 C22.7919047,16.4225502 23.6319047,12.8039841 22.2719047,11.5311142 C22.329238,10.1915631 24.0199047,1.01178536 15.4559047,1.01178536 C6.89190469,1.01178536 8.58257135,10.1915631 8.63990469,11.5311142 C7.27990469,12.8039841 8.11990469,16.4225502 9.47990469,16.4225502 C9.98523802,19.8262547 12.3065714,22.3571765 12.3065714,22.3571765 C12.3065714,22.3571765 12.2879047,24.7502905 11.4985714,24.8880983 C8.95457135,25.3341214 -0.544095312,29.9499418 -0.544095312,35.0117854 L31.4559047,35.0117854 C31.4559047,29.9499418 21.957238,25.3341214 19.4145714,24.8880983 C18.625238,24.7502905 18.6065714,22.3571765 18.6065714,22.3571765 Z" mask="url(#mask-10)" opacity=".142"/></g><g id="headline" opacity=".6" transform="translate(0.000000, 37.000000)"><rect id="Rectangle-167-Copy-16" width="27.792" height="2.455" x="1.208" y="0" fill="#00A0D2"/><rect id="Rectangle-167-Copy-8" width="16.857" height="2.294" x=".965" y="5.456" fill="#00A0D2" fill-opacity=".532" opacity=".333"/></g></g></g><g id="page" mask="url(#mask-2)"><g transform="translate(87.000000, 11.000000)"><g id="image" transform="translate(1.000000, 0.000000)"><mask id="mask-14" fill="#fff"><use xlink:href="#path-12"/></mask><g id="Mask" fill="url(#linearGradient-3)" fill-opacity=".15" stroke="#00A0D2" stroke-width="2" mask="url(#mask-13)"><use mask="url(#mask-15)" xlink:href="#path-12"/></g><path id="Shape-Copy-6" fill="#00A0D2" d="M18.6065714,22.3571765 C18.6065714,22.3571765 20.9265714,19.8262547 21.4319047,16.4225502 C22.7919047,16.4225502 23.6319047,12.8039841 22.2719047,11.5311142 C22.329238,10.1915631 24.0199047,1.01178536 15.4559047,1.01178536 C6.89190469,1.01178536 8.58257135,10.1915631 8.63990469,11.5311142 C7.27990469,12.8039841 8.11990469,16.4225502 9.47990469,16.4225502 C9.98523802,19.8262547 12.3065714,22.3571765 12.3065714,22.3571765 C12.3065714,22.3571765 12.2879047,24.7502905 11.4985714,24.8880983 C8.95457135,25.3341214 -0.544095312,29.9499418 -0.544095312,35.0117854 L31.4559047,35.0117854 C31.4559047,29.9499418 21.957238,25.3341214 19.4145714,24.8880983 C18.625238,24.7502905 18.6065714,22.3571765 18.6065714,22.3571765 Z" mask="url(#mask-14)" opacity=".142"/></g><g id="headline" opacity=".6" transform="translate(0.000000, 37.000000)"><rect id="Rectangle-167-Copy-16" width="27.792" height="2.455" x="1.208" y="0" fill="#00A0D2"/><rect id="Rectangle-167-Copy-8" width="16.857" height="2.294" x=".965" y="5.456" fill="#00A0D2" fill-opacity=".532" opacity=".333"/></g></g></g></g></g></svg>