<svg xmlns="http://www.w3.org/2000/svg" xmlns:xlink="http://www.w3.org/1999/xlink" width="100" height="68" version="1.1" viewBox="0 0 100 68"><title>slider</title><desc>Created with Sketch.</desc><defs><rect id="path-1" width="100" height="68" x="0" y="0"/><linearGradient id="linearGradient-3" x1="0%" x2="106.266%" y1="0%" y2="109.896%"><stop offset="0%" stop-color="#C8EAF4" stop-opacity=".208"/><stop offset="100%" stop-color="#3DD0FF"/></linearGradient><rect id="path-4" width="83" height="57" x="8" y="5"/><mask id="mask-5" width="83" height="57" x="0" y="0" fill="#fff" maskContentUnits="userSpaceOnUse" maskUnits="objectBoundingBox"><use xlink:href="#path-4"/></mask><mask id="mask-7" width="83" height="57" x="0" y="0" fill="#fff" maskContentUnits="userSpaceOnUse" maskUnits="objectBoundingBox"><use xlink:href="#path-4"/></mask></defs><g id="Elements" fill="none" fill-rule="evenodd" stroke="none" stroke-width="1"><g id="slider"><mask id="mask-2" fill="#fff"><use xlink:href="#path-1"/></mask><use id="BG" fill="#FFF" xlink:href="#path-1"/><mask id="mask-6" fill="#fff"><use xlink:href="#path-4"/></mask><g id="Rectangle-486-Copy-4" fill="url(#linearGradient-3)" fill-opacity=".15" stroke="#00A0D2" stroke-width="2" mask="url(#mask-5)"><use mask="url(#mask-7)" xlink:href="#path-4"/></g><path id="Shape-Copy-6" fill="#00A0D2" d="M65.9329807,39.4451119 C65.9329807,39.4451119 70.8917905,34.7681073 71.9718991,28.4782481 C74.8787877,28.4782481 76.6742188,21.7913364 73.7673303,19.4391426 C73.8898756,16.9637257 77.5035371,0 59.1986888,0 C40.8938406,0 44.5075021,16.9637257 44.6300474,19.4391426 C41.7231588,21.7913364 43.51859,28.4782481 46.4254786,28.4782481 C47.5055872,34.7681073 52.4672469,39.4451119 52.4672469,39.4451119 C52.4672469,39.4451119 52.4273485,43.8674552 50.7402131,44.1221165 C45.3026216,44.9463427 25,53.4761256 25,62.8301348 L93.3973777,62.8301348 C93.3973777,53.4761256 73.0947561,44.9463427 67.6600144,44.1221165 C65.9728791,43.8674552 65.9329807,39.4451119 65.9329807,39.4451119 Z" mask="url(#mask-6)" opacity=".142"/><circle id="Oval-1" cx="40.5" cy="34.5" r="3.5" fill="#00A0D2" mask="url(#mask-6)"/><circle id="Oval-1" cx="50.5" cy="34.5" r="3.5" fill="#00A0D2" fill-opacity=".532" mask="url(#mask-6)" opacity=".333"/><circle id="Oval-1" cx="60.5" cy="34.5" r="3.5" fill="#00A0D2" fill-opacity=".532" mask="url(#mask-6)" opacity=".333"/></g></g></svg>