<svg xmlns="http://www.w3.org/2000/svg" xmlns:xlink="http://www.w3.org/1999/xlink" width="100" height="68" version="1.1" viewBox="0 0 100 68"><title>testimonials</title><desc>Created with Sketch.</desc><defs><rect id="path-1" width="100" height="68" x="0" y="0"/><linearGradient id="linearGradient-3" x1="0%" x2="106.266%" y1="0%" y2="109.896%"><stop offset="0%" stop-color="#C8EAF4" stop-opacity=".208"/><stop offset="100%" stop-color="#3DD0FF"/></linearGradient><rect id="path-4" width="23.35" height="23.35" x="0" y="0" rx="11.675"/><mask id="mask-5" width="23.35" height="23.35" x="0" y="0" fill="#fff" maskContentUnits="userSpaceOnUse" maskUnits="objectBoundingBox"><use xlink:href="#path-4"/></mask><mask id="mask-7" width="23.35" height="23.35" x="0" y="0" fill="#fff" maskContentUnits="userSpaceOnUse" maskUnits="objectBoundingBox"><use xlink:href="#path-4"/></mask></defs><g id="Elements" fill="none" fill-rule="evenodd" stroke="none" stroke-width="1"><g id="testimonials"><mask id="mask-2" fill="#fff"><use xlink:href="#path-1"/></mask><use id="BG" fill="#FFF" xlink:href="#path-1"/><g id="headline" mask="url(#mask-2)"><g transform="translate(11.083008, 13.689859)"><mask id="mask-6" fill="#fff"><use xlink:href="#path-4"/></mask><g id="Rectangle-494" fill="url(#linearGradient-3)" fill-opacity=".15" fill-rule="evenodd" stroke="#00A0D2" stroke-width="2" mask="url(#mask-5)"><use mask="url(#mask-7)" xlink:href="#path-4"/></g><path id="Oval-7" fill="#00A0D2" fill-rule="evenodd" stroke="none" d="M12.9857508,15.8366034 C12.9857508,15.8366034 14.4155106,14.433138 14.7269353,12.5456908 C15.5650704,12.5456908 16.082742,10.5390968 15.244607,9.83325565 C15.2799401,9.09043791 16.321857,4 11.0440713,4 C5.76628553,4 6.80820244,9.09043791 6.84353558,9.83325565 C6.00540053,10.5390968 6.52307218,12.5456908 7.36120723,12.5456908 C7.67263193,14.433138 9.10321343,15.8366034 9.10321343,15.8366034 C9.10321343,15.8366034 9.09170961,17.1636506 8.6052626,17.2400688 C7.03745703,17.4874008 1.18365885,20.0469995 1.18365885,22.8539302 L20.9044837,22.8539302 C20.9044837,20.0469995 15.0506855,17.4874008 13.4837016,17.2400688 C12.9972546,17.1636506 12.9857508,15.8366034 12.9857508,15.8366034 Z" mask="url(#mask-6)"/></g></g><g id="headline" fill="#00A0D2" mask="url(#mask-2)" opacity=".6"><g transform="translate(39.000000, 16.000000)"><rect id="Rectangle-167-Copy-8" width="30.472" height="4.147" x="1.577" y="29.332" fill-opacity=".532" opacity=".333"/><rect id="Rectangle-167-Copy-7" width="36.088" height="4.147" x="1.577" y="20.235" fill-opacity=".532" opacity=".333"/><polygon id="Shape" points="9.664 5.261 7.46 .794 5.255 5.261 .325 5.978 3.892 9.455 3.05 14.365 7.46 12.047 11.869 14.365 11.027 9.455 14.594 5.978"/><polygon id="Shape" points="27.826 5.261 25.621 .794 23.416 5.261 18.486 5.978 22.054 9.455 21.211 14.365 25.621 12.047 30.031 14.365 29.188 9.455 32.756 5.978"/><polygon id="Shape" points="45.987 5.261 43.782 .794 41.578 5.261 36.647 5.978 40.215 9.455 39.372 14.365 43.782 12.047 48.192 14.365 47.35 9.455 50.917 5.978"/></g></g></g></g></svg>