<svg xmlns="http://www.w3.org/2000/svg" xmlns:xlink="http://www.w3.org/1999/xlink" width="71" height="50" version="1.1" viewBox="0 0 71 50"><title>disabled</title><desc>Created with Sketch.</desc><defs><rect id="path-1" width="70" height="50" x=".656" y="0" rx="4"/><mask id="mask-2" width="70" height="50" x="0" y="0" fill="#fff" maskContentUnits="userSpaceOnUse" maskUnits="objectBoundingBox"><use xlink:href="#path-1"/></mask></defs><g id="Page-1" fill="none" fill-rule="evenodd" stroke="none" stroke-width="1"><g id="disabled" transform="translate(-0.250000, 0.000000)"><g id="Rectangle-5-Copy-2-+-Shape-Copy" transform="translate(0.000000, 0.000000)"><use id="Rectangle-5-Copy-2" fill="#00A0D2" fill-opacity=".01" stroke="#3498DB" stroke-width="2" mask="url(#mask-2)" xlink:href="#path-1"/><path id="Shape-Copy-10" fill="#3498DB" d="M45.8147546,31.8712728 L45.8147546,31.8712728 L39.665353,25.7218712 L45.8147546,19.5724696 L45.8147546,19.5724696 C45.8812654,19.5059588 45.9287732,19.4286795 45.9598116,19.3463328 C46.0440586,19.1208294 45.9959174,18.8579533 45.8147546,18.6767904 L42.9098148,15.7718506 C42.728652,15.5906878 42.4651424,15.54318 42.2402724,15.6267937 C42.1579257,15.6571986 42.0806464,15.7053398 42.0141356,15.7712172 L42.0141356,15.7712172 L35.864734,21.9206187 L29.7153324,15.7712172 L29.7153324,15.7712172 C29.6488216,15.7053398 29.5715424,15.6571986 29.4891956,15.6267937 C29.2636922,15.5425466 29.0008161,15.5906878 28.8196532,15.7718506 L25.9147134,18.6767904 C25.7335506,18.8579533 25.6860429,19.1214628 25.7696565,19.3463328 C25.8006949,19.4286795 25.8482026,19.5059588 25.91408,19.5724696 L25.91408,19.5724696 L32.0634816,25.7218712 L25.91408,31.8712728 L25.91408,31.8712728 C25.8482026,31.9377836 25.8000614,32.0150628 25.769023,32.0974096 C25.684776,32.3222796 25.7329172,32.5857891 25.91408,32.766952 L28.8190198,35.6718918 C29.0001826,35.8530546 29.2636922,35.9005624 29.4885622,35.8169487 C29.5709089,35.7859103 29.6481882,35.7384026 29.714699,35.6718918 L29.714699,35.6718918 L35.8641006,29.5224902 L42.0135021,35.6718918 L42.0135021,35.6718918 C42.080013,35.7384026 42.1572922,35.7859103 42.239639,35.8169487 C42.4651424,35.9011958 42.7280185,35.8530546 42.9091814,35.6718918 L45.8141212,32.766952 C45.995284,32.5857891 46.0434252,32.3222796 45.9591781,32.0974096 C45.9281397,32.0150628 45.880632,31.9377836 45.8141212,31.8712728 L45.8147546,31.8712728 Z"/></g></g></g></svg>