<svg xmlns="http://www.w3.org/2000/svg" xmlns:xlink="http://www.w3.org/1999/xlink" width="100" height="72" version="1.1" viewBox="0 0 100 72"><title>icon-fill</title><desc>Created with Sketch.</desc><defs><rect id="path-1" width="100" height="71.429" x="0" y="0" rx="4"/><mask id="mask-2" width="100" height="71.429" x="0" y="0" fill="#fff" maskContentUnits="userSpaceOnUse" maskUnits="objectBoundingBox"><use xlink:href="#path-1"/></mask><mask id="mask-4" width="100" height="71.429" x="0" y="0" fill="#fff" maskContentUnits="userSpaceOnUse" maskUnits="objectBoundingBox"><use xlink:href="#path-1"/></mask></defs><g id="Page-1" fill="none" fill-rule="evenodd" stroke="none" stroke-width="1"><g id="icon-fill"><mask id="mask-3" fill="#fff"><use xlink:href="#path-1"/></mask><g id="Mask" fill="#00A0D2" fill-opacity=".01" stroke="#3498DB" stroke-width="2" mask="url(#mask-2)"><use mask="url(#mask-4)" xlink:href="#path-1"/></g><rect id="Rectangle-166-Copy-4" width="52.929" height="53.446" x="24.308" y="8.281" fill="#3498DB" mask="url(#mask-3)" rx="26.465"/><path id="Shape-Copy-14" fill="#FFF" d="M61.0451456,32.9627956 C61.0451456,34.6529341 60.3168644,36.1727436 59.1571251,37.2260274 L59.1665182,37.2260274 L52.9044269,43.4881186 C52.2782178,44.1143278 51.6520087,44.7405369 51.0257996,44.7405369 C50.3995904,44.7405369 49.7733813,44.1143278 49.1471722,43.4881186 L42.8850809,37.2260274 L42.8944741,37.2260274 C41.7347348,36.1727436 41.0064535,34.6529341 41.0064535,32.9627956 C41.0064535,29.7835319 43.5839303,27.2066814 46.7625678,27.2066814 C48.4527063,27.2066814 49.9725158,27.9349626 51.0257996,29.0947019 C52.0790833,27.9349626 53.5988929,27.2066814 55.2890313,27.2066814 C58.468295,27.2066814 61.0451456,29.7841581 61.0451456,32.9627956 L61.0451456,32.9627956 Z" mask="url(#mask-3)"/></g></g></svg>