<svg xmlns="http://www.w3.org/2000/svg" xmlns:xlink="http://www.w3.org/1999/xlink" width="70" height="67" version="1.1" viewBox="0 0 70 67"><title>layout-custom</title><desc>Created with Sketch.</desc><defs><rect id="path-1" width="70" height="50" x="0" y="0" rx="4"/><mask id="mask-2" width="70" height="50" x="0" y="0" fill="#fff" maskContentUnits="userSpaceOnUse" maskUnits="objectBoundingBox"><use xlink:href="#path-1"/></mask><mask id="mask-4" width="70" height="50" x="0" y="0" fill="#fff" maskContentUnits="userSpaceOnUse" maskUnits="objectBoundingBox"><use xlink:href="#path-1"/></mask></defs><g id="Page-1" fill="none" fill-rule="evenodd" stroke="none" stroke-width="1"><g id="layout-custom"><text id="Custom" fill="#9A8F9A" font-family="Lato-Regular, Lato" font-size="13" font-weight="normal"><tspan x="0" y="66">Custom</tspan></text><mask id="mask-3" fill="#fff"><use xlink:href="#path-1"/></mask><g id="Mask" fill="#00A0D2" fill-opacity=".01" stroke="#3498DB" stroke-width="2" mask="url(#mask-2)"><use mask="url(#mask-4)" xlink:href="#path-1"/></g><path id="Shape" fill="#3498DB" d="M45.168931,14.830819 C42.7306307,12.3893937 38.7696623,12.3893937 36.331362,14.830819 L22.0242189,29.1371808 L22,37.99975 L30.837569,37.99975 L45.168931,23.668388 C47.6103563,21.2269627 47.6103563,17.2722443 45.168931,14.830819 L45.168931,14.830819 Z M29.5102149,34.8747256 L25.0914304,34.8747256 L25.0914304,30.4309409 C26.3117524,29.2106188 28.2898929,29.2106188 29.5102149,30.4309409 C30.730537,31.6512629 30.7313182,33.6544036 29.5102149,34.8747256 L29.5102149,34.8747256 Z M42.9017258,21.4589958 L38.4829413,17.0402113 C39.7032633,15.8198892 41.6814038,15.8198892 42.9017258,17.0402113 C44.1220478,18.2605333 44.1220478,20.2386737 42.9017258,21.4589958 L42.9017258,21.4589958 Z" mask="url(#mask-3)"/></g></g></svg>