<svg xmlns="http://www.w3.org/2000/svg" xmlns:xlink="http://www.w3.org/1999/xlink" width="72" height="52" version="1.1" viewBox="0 0 72 52"><title>overlay-center</title><desc>Created with Sketch.</desc><defs><rect id="path-1" width="70" height="50" x="0" y="0" rx="4"/><mask id="mask-3" width="72" height="52" x="-1" y="-1" maskContentUnits="userSpaceOnUse" maskUnits="objectBoundingBox"><rect width="72" height="52" x="-1" y="-1" fill="#fff"/><use fill="#000" xlink:href="#path-1"/></mask></defs><g id="Page-1" fill="none" fill-rule="evenodd" stroke="none" stroke-width="1"><g id="overlay-center" transform="translate(1.000000, 1.000000)"><mask id="mask-2" fill="#fff"><use xlink:href="#path-1"/></mask><g id="Mask"><use fill="#00A0D2" fill-opacity=".01" fill-rule="evenodd" xlink:href="#path-1"/><use stroke="#3498DB" stroke-width="2" mask="url(#mask-3)" xlink:href="#path-1"/></g><polygon id="Line" fill="#3498DB" points="24.302 16.5 48.176 16.5 48.676 16.5 48.676 15.5 48.176 15.5 24.302 15.5 23.802 15.5 23.802 16.5" mask="url(#mask-2)"/><polygon id="Line" fill="#3498DB" points="25.302 21.5 46 21.5 46.5 21.5 46.5 20.5 46 20.5 25.302 20.5 24.802 20.5 24.802 21.5" mask="url(#mask-2)"/><polygon id="Line" fill="#3498DB" points="24.302 26.5 48.176 26.5 48.676 26.5 48.676 25.5 48.176 25.5 24.302 25.5 23.802 25.5 23.802 26.5" mask="url(#mask-2)"/><polygon id="Line" fill="#3498DB" points="27.302 31.5 44.102 31.5 44.602 31.5 44.602 30.5 44.102 30.5 27.302 30.5 26.802 30.5 26.802 31.5" mask="url(#mask-2)"/><polygon id="Line" fill="#3498DB" points="24.302 36.5 48.176 36.5 48.676 36.5 48.676 35.5 48.176 35.5 24.302 35.5 23.802 35.5 23.802 36.5" mask="url(#mask-2)"/></g></g></svg>