<svg xmlns="http://www.w3.org/2000/svg" xmlns:xlink="http://www.w3.org/1999/xlink" width="100" height="72" version="1.1" viewBox="0 0 100 72"><title>search-icon-outline</title><desc>Created with Sketch.</desc><defs><rect id="path-1" width="100" height="71.429" x="0" y="0" rx="4"/><mask id="mask-2" width="100" height="71.429" x="0" y="0" fill="#fff" maskContentUnits="userSpaceOnUse" maskUnits="objectBoundingBox"><use xlink:href="#path-1"/></mask><mask id="mask-4" width="100" height="71.429" x="0" y="0" fill="#fff" maskContentUnits="userSpaceOnUse" maskUnits="objectBoundingBox"><use xlink:href="#path-1"/></mask><rect id="path-5" width="52.929" height="53.446" x="23.308" y="8.281" rx="26.465"/><mask id="mask-6" width="52.929" height="53.446" x="0" y="0" fill="#fff" maskContentUnits="userSpaceOnUse" maskUnits="objectBoundingBox"><use xlink:href="#path-5"/></mask></defs><g id="Page-1" fill="none" fill-rule="evenodd" stroke="none" stroke-width="1"><g id="search-icon-outline"><mask id="mask-3" fill="#fff"><use xlink:href="#path-1"/></mask><g id="Mask" fill="#00A0D2" fill-opacity=".01" stroke="#3498DB" stroke-width="2" mask="url(#mask-2)"><use mask="url(#mask-4)" xlink:href="#path-1"/></g><g id="Rectangle-166-Copy-4" fill="#3498DB" fill-opacity=".128" stroke="#3498DB" stroke-width="2" mask="url(#mask-3)"><use mask="url(#mask-6)" xlink:href="#path-5"/></g><path id="Shape" fill="#3498DB" d="M65.258,46.776 L59.48,40.998 C61.064,38.73 62,35.976 62,33 C62,25.268 55.73,19 48,19 C40.27,19 34,25.268 34,33 C34,40.732 40.268,47 48,47 C50.976,47 53.732,46.064 56,44.48 L61.778,50.258 C62.738,51.218 64.298,51.218 65.258,50.258 C66.218,49.298 66.218,47.74 65.258,46.776 L65.258,46.776 Z M47.998,43.002 C42.476,43.002 37.998,38.526 37.998,33.002 C37.998,27.478 42.476,23.002 47.998,23.002 C53.522,23.002 57.998,27.478 57.998,33.002 C58,38.526 53.524,43.002 47.998,43.002 L47.998,43.002 Z" mask="url(#mask-3)"/></g></g></svg>