<svg xmlns="http://www.w3.org/2000/svg" xmlns:xlink="http://www.w3.org/1999/xlink" width="100" height="70" version="1.1" viewBox="0 0 100 70"><title>box-left</title><desc>Created with Sketch.</desc><defs><linearGradient id="linearGradient-1" x1="0%" x2="106.266%" y1="0%" y2="109.896%"><stop offset="0%" stop-color="#C8EAF4" stop-opacity=".208"/><stop offset="100%" stop-color="#3DD0FF"/></linearGradient><rect id="path-2" width="99.943" height="70" x="0" y="0"/><mask id="mask-3" width="99.943" height="70" x="0" y="0" fill="#fff" maskContentUnits="userSpaceOnUse" maskUnits="objectBoundingBox"><use xlink:href="#path-2"/></mask><mask id="mask-5" width="99.943" height="70" x="0" y="0" fill="#fff" maskContentUnits="userSpaceOnUse" maskUnits="objectBoundingBox"><use xlink:href="#path-2"/></mask><rect id="path-6" width="34" height="48" x="12" y="11"/><filter id="filter-7" width="200%" height="200%" x="-50%" y="-50%" filterUnits="objectBoundingBox"><feOffset dx="0" dy="2" in="SourceAlpha" result="shadowOffsetOuter1"/><feGaussianBlur in="shadowOffsetOuter1" result="shadowBlurOuter1" stdDeviation="2"/><feColorMatrix in="shadowBlurOuter1" type="matrix" values="0 0 0 0 0 0 0 0 0 0 0 0 0 0 0 0 0 0 0.14696558 0"/></filter></defs><g id="Section-Presets" fill="none" fill-rule="evenodd" stroke="none" stroke-width="1"><g id="box-left"><mask id="mask-4" fill="#fff"><use xlink:href="#path-2"/></mask><g id="BG" fill="url(#linearGradient-1)" fill-opacity=".15" stroke="#00A0D2" stroke-width="2" mask="url(#mask-3)"><use mask="url(#mask-5)" xlink:href="#path-2"/></g><path id="Shape-Copy-6" fill="#00A0D2" d="M41.2164119,47.3544812 C41.2164119,47.3544812 46.9364256,41.7396632 48.1823366,34.1885876 C51.5354481,34.1885876 53.6064876,26.1608443 50.2533761,23.3369984 C50.3947327,20.3652212 54.5631105,0 33.4483703,0 C12.3336301,0 16.5020079,20.3652212 16.6433646,23.3369984 C13.2902531,26.1608443 15.3612925,34.1885876 18.714404,34.1885876 C19.960315,41.7396632 25.6836161,47.3544812 25.6836161,47.3544812 C25.6836161,47.3544812 25.637593,52.6635744 23.6914734,52.9692993 C17.4191825,53.9587959 -6,64.1989353 -6,75.4285714 L72.8967407,75.4285714 C72.8967407,64.1989353 49.4775581,53.9587959 43.2085546,52.9692993 C41.262435,52.6635744 41.2164119,47.3544812 41.2164119,47.3544812 Z" mask="url(#mask-4)" opacity=".102"/><g id="Rectangle-2" mask="url(#mask-4)"><use fill="#000" fill-opacity="1" filter="url(#filter-7)" xlink:href="#path-6"/><use fill="#FFF" fill-rule="evenodd" xlink:href="#path-6"/></g><rect id="Rectangle-3" width="21" height="5" x="56" y="41" fill="#00A0D2" fill-opacity=".532" mask="url(#mask-4)" opacity=".333"/><rect id="Rectangle-3" width="31" height="5" x="56" y="23" fill="#00A0D2" mask="url(#mask-4)"/><rect id="Rectangle-3" width="21" height="5" x="56" y="32" fill="#00A0D2" fill-opacity=".532" mask="url(#mask-4)" opacity=".333"/><rect id="Rectangle-3" width="21" height="5" x="19" y="22" fill="#00A0D2" fill-opacity=".532" mask="url(#mask-4)" opacity=".333"/><rect id="Rectangle-3" width="21" height="5" x="19" y="32" fill="#00A0D2" fill-opacity=".532" mask="url(#mask-4)" opacity=".333"/><rect id="Rectangle-3" width="21" height="5" x="19" y="42" fill="#00A0D2" fill-opacity=".532" mask="url(#mask-4)" opacity=".333"/></g></g></svg>