<svg xmlns="http://www.w3.org/2000/svg" xmlns:xlink="http://www.w3.org/1999/xlink" width="100" height="70" version="1.1" viewBox="0 0 100 70"><title>media-right-large</title><desc>Created with Sketch.</desc><defs><linearGradient id="linearGradient-1" x1="0%" x2="106.266%" y1="0%" y2="109.896%"><stop offset="0%" stop-color="#C8EAF4" stop-opacity=".208"/><stop offset="100%" stop-color="#3DD0FF"/></linearGradient><rect id="path-2" width="99.943" height="70" x="0" y="0"/><mask id="mask-3" width="99.943" height="70" x="0" y="0" fill="#fff" maskContentUnits="userSpaceOnUse" maskUnits="objectBoundingBox"><use xlink:href="#path-2"/></mask><mask id="mask-5" width="99.943" height="70" x="0" y="0" fill="#fff" maskContentUnits="userSpaceOnUse" maskUnits="objectBoundingBox"><use xlink:href="#path-2"/></mask></defs><g id="Section-Presets" fill="none" fill-rule="evenodd" stroke="none" stroke-width="1"><g id="media-right-large"><mask id="mask-4" fill="#fff"><use xlink:href="#path-2"/></mask><g id="BG" fill="url(#linearGradient-1)" fill-opacity=".15" stroke="#00A0D2" stroke-width="2" mask="url(#mask-3)"><use mask="url(#mask-5)" xlink:href="#path-2"/></g><path id="Shape-Copy-6" fill="#00A0D2" d="M11.2164119,47.3544812 C11.2164119,47.3544812 16.9364256,41.7396632 18.1823366,34.1885876 C21.5354481,34.1885876 23.6064876,26.1608443 20.2533761,23.3369984 C20.3947327,20.3652212 24.5631105,0 3.44837033,0 C-17.6663699,0 -13.4979921,20.3652212 -13.3566354,23.3369984 C-16.7097469,26.1608443 -14.6387075,34.1885876 -11.285596,34.1885876 C-10.039685,41.7396632 -4.3163839,47.3544812 -4.3163839,47.3544812 C-4.3163839,47.3544812 -4.362407,52.6635744 -6.3085266,52.9692993 C-12.5808175,53.9587959 -36,64.1989353 -36,75.4285714 L42.8967407,75.4285714 C42.8967407,64.1989353 19.4775581,53.9587959 13.2085546,52.9692993 C11.262435,52.6635744 11.2164119,47.3544812 11.2164119,47.3544812 Z" mask="url(#mask-4)" opacity=".102"/><rect id="Rectangle-2" width="45" height="70" x="57" y="0" fill="#00A0D2" mask="url(#mask-4)"/><rect id="Rectangle-3" width="21" height="5" x="13" y="41" fill="#00A0D2" fill-opacity=".532" mask="url(#mask-4)" opacity=".333"/><rect id="Rectangle-3" width="31" height="5" x="13" y="23" fill="#00A0D2" mask="url(#mask-4)"/><rect id="Rectangle-3" width="21" height="5" x="13" y="32" fill="#00A0D2" fill-opacity=".532" mask="url(#mask-4)" opacity=".333"/></g></g></svg>