<svg xmlns="http://www.w3.org/2000/svg" xmlns:xlink="http://www.w3.org/1999/xlink" width="100" height="70" version="1.1" viewBox="0 0 100 70"><title>media-center</title><desc>Created with Sketch.</desc><defs><linearGradient id="linearGradient-1" x1="0%" x2="106.266%" y1="0%" y2="109.896%"><stop offset="0%" stop-color="#C8EAF4" stop-opacity=".208"/><stop offset="100%" stop-color="#3DD0FF"/></linearGradient><rect id="path-2" width="99.943" height="70" x="0" y="0"/><mask id="mask-3" width="99.943" height="70" x="0" y="0" fill="#fff" maskContentUnits="userSpaceOnUse" maskUnits="objectBoundingBox"><use xlink:href="#path-2"/></mask><mask id="mask-5" width="99.943" height="70" x="0" y="0" fill="#fff" maskContentUnits="userSpaceOnUse" maskUnits="objectBoundingBox"><use xlink:href="#path-2"/></mask></defs><g id="Section-Presets" fill="none" fill-rule="evenodd" stroke="none" stroke-width="1"><g id="media-center"><mask id="mask-4" fill="#fff"><use xlink:href="#path-2"/></mask><g id="BG" fill="url(#linearGradient-1)" fill-opacity=".15" stroke="#00A0D2" stroke-width="2" mask="url(#mask-3)"><use mask="url(#mask-5)" xlink:href="#path-2"/></g><path id="Shape-Copy-6" fill="#00A0D2" d="M94.2164119,47.3544812 C94.2164119,47.3544812 99.9364256,41.7396632 101.182337,34.1885876 C104.535448,34.1885876 106.606488,26.1608443 103.253376,23.3369984 C103.394733,20.3652212 107.563111,0 86.4483703,0 C65.3336301,0 69.5020079,20.3652212 69.6433646,23.3369984 C66.2902531,26.1608443 68.3612925,34.1885876 71.714404,34.1885876 C72.960315,41.7396632 78.6836161,47.3544812 78.6836161,47.3544812 C78.6836161,47.3544812 78.637593,52.6635744 76.6914734,52.9692993 C70.4191825,53.9587959 47,64.1989353 47,75.4285714 L125.896741,75.4285714 C125.896741,64.1989353 102.477558,53.9587959 96.2085546,52.9692993 C94.262435,52.6635744 94.2164119,47.3544812 94.2164119,47.3544812 Z" mask="url(#mask-4)" opacity=".102"/><rect id="Rectangle-2" width="24" height="34" x="35" y="18" fill="#00A0D2" mask="url(#mask-4)"/><rect id="Rectangle-3" width="10.569" height="5" x="16.699" y="41" fill="#00A0D2" fill-opacity=".532" mask="url(#mask-4)" opacity=".333"/><rect id="Rectangle-3" width="15.602" height="5" x="14.699" y="23" fill="#00A0D2" mask="url(#mask-4)"/><rect id="Rectangle-3" width="10.569" height="5" x="16.699" y="32" fill="#00A0D2" fill-opacity=".532" mask="url(#mask-4)" opacity=".333"/><rect id="Rectangle-3" width="10.569" height="5" x="67.699" y="41" fill="#00A0D2" fill-opacity=".532" mask="url(#mask-4)" opacity=".333"/><rect id="Rectangle-3" width="15.602" height="5" x="67.699" y="23" fill="#00A0D2" mask="url(#mask-4)"/><rect id="Rectangle-3" width="10.569" height="5" x="67.699" y="32" fill="#00A0D2" fill-opacity=".532" mask="url(#mask-4)" opacity=".333"/></g></g></svg>